<?xml version="1.0" encoding="iso-8859-1"?>
<!-- Generator: Adobe Illustrator 19.0.0, SVG Export Plug-In . SVG Version: 6.00 Build 0)  -->
<svg version="1.1" id="Layer_1" xmlns="http://www.w3.org/2000/svg" xmlns:xlink="http://www.w3.org/1999/xlink" x="0px" y="0px"
	 viewBox="0 0 330.021 330.021" style="enable-background:new 0 0 330.021 330.021;" xml:space="preserve">
<g id="XMLID_340_">
	<path id="XMLID_341_" d="M79.95,218.025l0.002,36.967c0,0.024-0.004,0.047-0.004,0.07c0,0.024,0.004,0.047,0.004,0.07l0.004,59.734
		c0,0.052-0.008,0.102-0.008,0.154c0,8.284,6.717,15,15,15h33.303c8.285,0,15-6.716,15-15c0-8.284-6.715-15-15-15h-18.295
		l-0.003-29.959h4.978c8.285,0,15-6.716,15-15c0-8.284-6.715-15-15-15h-4.979l-0.001-22.036
		c23.035-6.546,39.961-27.757,39.961-52.861c0-25.105-16.926-46.317-39.963-52.862V85.014c0-30.334,24.68-55.014,55.014-55.014
		c30.335,0,55.014,24.679,55.014,55.014v27.29c-23.033,6.546-39.959,27.757-39.959,52.861V315c0,8.284,6.717,15,15,15h80.012
		c8.285,0,15-6.716,15-15V165.165c0-0.663-0.043-1.316-0.127-1.956c-0.854-24.246-17.492-44.531-39.926-50.907V85.014
		C249.975,38.137,211.839,0,164.962,0c-46.877,0-85.014,38.137-85.014,85.014v27.291c-23.031,6.547-39.955,27.757-39.955,52.86
		C39.993,190.268,56.917,211.479,79.95,218.025z M94.952,140.206c13.763,0,24.959,11.197,24.959,24.959
		c0,13.762-11.196,24.959-24.959,24.959c-13.762,0-24.959-11.197-24.959-24.959C69.993,151.403,81.19,140.206,94.952,140.206z"/>
</g>
<g>
</g>
<g>
</g>
<g>
</g>
<g>
</g>
<g>
</g>
<g>
</g>
<g>
</g>
<g>
</g>
<g>
</g>
<g>
</g>
<g>
</g>
<g>
</g>
<g>
</g>
<g>
</g>
<g>
</g>
</svg>
